PathFileType	4	(X/Y/Z)	/Users/itak/Documents/Research/Walk-IL/dataset/trc/00305_00010.trc
DataRate	CameraRate	NumFrames	NumMarkers	Units	OrigDataRate	OrigDataStartFrame	OrigNumFrames
100.000000	100.000000	4	55	mm	100.000000	114	456
Frame#	Time	RPSI			LPSI			L3			STRN			T10			C7			CLAV			RBAK			LBAK			LSHO			LUPA			LAEL			LAOL			LWPS			LFRA			LIFD			LHPS			LHTS			RSHO			RUPA			RAEL			RAOL			RWTS			RWPS			RFRA			RIFD			RHPS			RBHD			LFHD			RFHD			LBHD			LHIP			RASI			LASI			LKNE			LTHI			LANK			LTIP			LTOE			LMT1			LMT5			LHEE			RKNE			RTHI			RANK			RTIP			RTOE			RMT1			RMT5			LWTS			RHTS			RHEE			RHIP			*53			*54			
		X1	Y1	Z1	X2	Y2	Z2	X3	Y3	Z3	X4	Y4	Z4	X5	Y5	Z5	X6	Y6	Z6	X7	Y7	Z7	X8	Y8	Z8	X9	Y9	Z9	X10	Y10	Z10	X11	Y11	Z11	X12	Y12	Z12	X13	Y13	Z13	X14	Y14	Z14	X15	Y15	Z15	X16	Y16	Z16	X17	Y17	Z17	X18	Y18	Z18	X19	Y19	Z19	X20	Y20	Z20	X21	Y21	Z21	X22	Y22	Z22	X23	Y23	Z23	X24	Y24	Z24	X25	Y25	Z25	X26	Y26	Z26	X27	Y27	Z27	X28	Y28	Z28	X29	Y29	Z29	X30	Y30	Z30	X31	Y31	Z31	X32	Y32	Z32	X33	Y33	Z33	X34	Y34	Z34	X35	Y35	Z35	X36	Y36	Z36	X37	Y37	Z37	X38	Y38	Z38	X39	Y39	Z39	X40	Y40	Z40	X41	Y41	Z41	X42	Y42	Z42	X43	Y43	Z43	X44	Y44	Z44	X45	Y45	Z45	X46	Y46	Z46	X47	Y47	Z47	X48	Y48	Z48	X49	Y49	Z49	X50	Y50	Z50	X51	Y51	Z51	X52	Y52	Z52	X53	Y53	Z53	X54	Y54	Z54	X55	Y55	Z55	

115	1.14	-1275.223388671875	1005.422912597656	887.8775634765625	-1263.695068359375	989.6135864257812	713.7905883789062	-1245.413696289062	1070.808227539062	800.1773071289062	-978.2252197265625	1229.496215820312	809.850830078125	-1248.0791015625	1190.077880859375	801.0330200195312	-1182.818603515625	1430.038208007812	791.0582885742188	-1031.73779296875	1335.737426757812	804.2141723632812	-1249.820556640625	1297.119262695312	865.7802734375	-1195.166137695312	1397.382690429688	684.3184814453125	-1100.51318359375	1397.272216796875	637.171142578125	-1135.385986328125	1285.5068359375	559.001708984375	-1146.146484375	1082.916748046875	536.4656372070312	-1211.455932617188	1072.39404296875	592.2924194335938	-1111.499389648438	847.6986083984375	518.4578857421875	-1137.377197265625	978.4969482421875	525.3960571289062	-1081.172973632812	673.921875	577.2662353515625	-1109.489013671875	758.807373046875	519.6568603515625	-1058.158325195312	759.4950561523438	562.422607421875	-1122.374633789062	1398.703369140625	953.2339477539062	-1134.110229492188	1341.017700195312	1020.244873046875	-1141.307373046875	1073.872314453125	1076.448364257812	-1182.04638671875	1064.952270507812	990.2138061523438	-1052.81298828125	844.87744140625	1018.805480957031	-1090.77099609375	841.690185546875	1094.841918945312	-1117.0732421875	1006.102722167969	1086.988159179688	-1056.612548828125	657.3171997070312	1017.376647949219	-1072.796142578125	728.5699462890625	1088.650146484375	-1137.971435546875	1586.130126953125	871.2552490234375	-979.2354125976562	1610.177490234375	732.3295288085938	-970.14697265625	1610.045776367188	824.3980102539062	-1153.705322265625	1576.866088867188	725.8406982421875	-1188.768798828125	938.61328125	625.5842895507812	-1057.946044921875	949.0067138671875	936.1188354492188	-1055.048828125	945.8670654296875	684.5472412109375	-1030.779907226562	486.2835693359375	636.6729125976562	-1069.419799804688	624.257080078125	622.1991577148438	-1287.745849609375	119.1201705932617	597.4219360351562	-1157.44921875	294.5988464355469	605.0776977539062	-1103.089477539062	38.71427536010742	644.3613891601562	-1170.8916015625	38.24453353881836	685.8865356445312	-1176.67529296875	70.20722961425781	578.9522705078125	-1334.346435546875	122.0820846557617	656.1668090820312	-1188.392211914062	476.9873046875	940.2372436523438	-1139.025390625	735.3274536132812	987.8121337890625	-1304.666015625	45.53104782104492	878.2435302734375	-1196.55615234375	354.5626525878906	918.5213623046875	-1105.132080078125	47.53367614746094	840.3302612304688	-1158.125366210938	46.39457702636719	796.6214599609375	-1202.982666015625	37.54890441894531	906.4448852539062	-1080.744506835938	856.8975219726562	584.2606201171875	-1028.546508789062	726.446044921875	1033.563842773438	-1353.251342773438	45.05478286743164	823.4730224609375	-1185.53466796875	953.5840454101562	999.3323974609375	nan	nan	nan	nan	nan	nan	
116	1.15	-1273.694458007812	1004.831665039062	888.9242553710938	-1262.303588867188	988.5213012695312	714.9751586914062	-1243.966918945312	1070.492309570312	801.6708984375	-975.6427612304688	1228.297241210938	810.5912475585938	-1245.871337890625	1190.318603515625	802.891845703125	-1179.30712890625	1429.889892578125	792.7859497070312	-1028.835815429688	1334.636840820312	805.2462768554688	-1246.634643554688	1297.336669921875	867.7888793945312	-1192.246215820312	1397.312255859375	686.094482421875	-1097.820434570312	1396.690185546875	638.513427734375	-1133.60888671875	1285.141479492188	560.4793090820312	-1145.673706054688	1082.694091796875	537.6873168945312	-1210.65576171875	1072.466674804688	593.8364868164062	-1112.413940429688	847.3341064453125	519.08154296875	-1137.477661132812	978.26220703125	526.4572143554688	-1082.3408203125	673.2821044921875	577.0592651367188	-1110.9326171875	758.4851684570312	519.9891357421875	-1059.283935546875	758.7047119140625	562.484375	-1118.162719726562	1398.093994140625	954.6481323242188	-1129.625244140625	1340.373901367188	1021.766845703125	-1136.059326171875	1072.953369140625	1077.437133789062	-1177.961059570312	1064.239990234375	991.7646484375	-1047.765991210938	844.2738037109375	1017.642578125	-1084.734008789062	840.6312866210938	1094.129150390625	-1111.665649414062	1005.068908691406	1087.383911132812	-1051.247924804688	656.6901245117188	1015.512145996094	-1066.58837890625	727.6593017578125	1087.29638671875	-1134.032348632812	1585.5390625	872.3928833007812	-975.6332397460938	1609.457275390625	733.0911254882812	-966.3084106445312	1609.399780273438	825.11328125	-1150.110961914062	1576.107666015625	727.0451049804688	-1187.313232421875	937.8775634765625	626.6305541992188	-1056.399047851562	948.5814819335938	937.2177124023438	-1053.4599609375	945.616455078125	685.607421875	-1020.58642578125	487.8996887207031	639.17724609375	-1062.010009765625	625.1171264648438	624.3901977539062	-1282.297241210938	124.7778167724609	599.6586303710938	-1148.8232421875	297.5716857910156	607.6964111328125	-1100.43603515625	38.87055206298828	647.9871215820312	-1168.2509765625	39.85042572021484	688.8714599609375	-1172.554443359375	73.017333984375	582.1954345703125	-1328.913696289062	128.5259399414062	658.2217407226562	-1187.068969726562	476.5745544433594	940.96337890625	-1137.303466796875	734.684814453125	988.5662231445312	-1304.672973632812	45.51497268676758	878.2566528320312	-1195.611694335938	354.1203918457031	919.1387329101562	-1105.166381835938	47.48858642578125	840.3777465820312	-1158.07373046875	46.37161636352539	796.5941162109375	-1203.019409179688	37.43943023681641	906.49072265625	-1081.192749023438	856.225341796875	584.72509765625	-1023.124267578125	725.8167114257812	1031.635620117188	-1353.249877929688	45.11428833007812	823.5076293945312	-1183.986572265625	953.009521484375	1000.162780761719	nan	nan	nan	nan	nan	nan	
117	1.16	-1272.061645507812	1004.258117675781	889.8844604492188	-1260.710571289062	987.4566040039062	716.047119140625	-1242.420288085938	1070.1376953125	803.1244506835938	-972.9932250976562	1227.094482421875	811.2509155273438	-1243.55615234375	1190.516845703125	804.7267456054688	-1175.708374023438	1429.717651367188	794.5097045898438	-1025.876586914062	1333.519653320312	806.2227172851562	-1243.345825195312	1297.525512695312	869.7713623046875	-1189.29052734375	1397.2265625	687.8690795898438	-1095.104125976562	1396.1025390625	639.8134765625	-1131.84423828125	1284.766235351562	561.9111938476562	-1145.280395507812	1082.44873046875	538.9048461914062	-1209.886596679688	1072.552001953125	595.4125366210938	-1113.366333007812	846.9456176757812	519.8053588867188	-1137.6396484375	978.01953125	527.5502319335938	-1083.271850585938	672.7479248046875	576.994384765625	-1112.402709960938	758.1708374023438	520.4597778320312	-1060.4130859375	757.955078125	562.6658935546875	-1113.853637695312	1397.449096679688	956.031005859375	-1125.028564453125	1339.686401367188	1023.250854492188	-1130.724365234375	1071.995361328125	1078.384765625	-1173.779174804688	1063.461059570312	993.2684326171875	-1042.614868164062	843.7017822265625	1016.352966308594	-1078.556762695312	839.5294799804688	1093.275146484375	-1106.091796875	1003.977416992188	1087.67578125	-1045.651733398438	656.0944213867188	1013.418212890625	-1060.204223632812	726.7188110351562	1085.731323242188	-1130.024169921875	1584.944091796875	873.4931030273438	-971.9520874023438	1608.724243164062	733.8265991210938	-962.3848266601562	1608.748046875	825.7996826171875	-1146.427978515625	1575.337158203125	728.2122802734375	-1185.608276367188	937.2171020507812	627.6012573242188	-1054.796875	948.1233520507812	938.3107299804688	-1051.661499023438	945.3580322265625	686.6505126953125	-1010.637939453125	489.62158203125	641.663330078125	-1054.73291015625	626.0862426757812	626.54833984375	-1275.957275390625	129.7002868652344	602.1058349609375	-1139.901733398438	300.330322265625	610.4559326171875	-1096.715454101562	39.4280891418457	653.0592651367188	-1164.763916015625	41.98726272583008	692.9528198242188	-1167.255859375	75.52606201171875	586.3038940429688	-1322.813842773438	134.3335571289062	660.20556640625	-1185.664306640625	476.1567687988281	941.6435546875	-1135.470336914062	733.9871826171875	989.243408203125	-1304.676391601562	45.5039176940918	878.2695922851562	-1194.611206054688	353.6636352539062	919.7200927734375	-1105.193725585938	47.43027496337891	840.4199829101562	-1158.022583007812	46.36017227172852	796.5790405273438	-1203.04296875	37.3250846862793	906.543701171875	-1081.712646484375	855.5604248046875	585.2665405273438	-1017.521789550781	725.2428588867188	1029.518432617188	-1353.2392578125	45.17177963256836	823.539306640625	-1182.37060546875	952.4054565429688	1000.971557617188	nan	nan	nan	nan	nan	nan	
118	1.17	-1270.309326171875	1003.716369628906	890.767333984375	-1258.896240234375	986.4652099609375	717.002685546875	-1240.745483398438	1069.780395507812	804.5475463867188	-970.27392578125	1225.901245117188	811.8375854492188	-1241.125610351562	1190.670776367188	806.53076171875	-1172.024536132812	1429.524780273438	796.2192993164062	-1022.843994140625	1332.406494140625	807.1417846679688	-1239.956665039062	1297.686157226562	871.7152099609375	-1186.292114257812	1397.12939453125	689.6306762695312	-1092.360107421875	1395.514282226562	641.0675048828125	-1130.081665039062	1284.387573242188	563.2915649414062	-1144.949340820312	1082.181762695312	540.123291015625	-1209.133666992188	1072.645629882812	597.0277099609375	-1114.344482421875	846.5352172851562	520.6358642578125	-1137.852172851562	977.7689208984375	528.6746826171875	-1083.998779296875	672.3316650390625	577.1124267578125	-1113.882934570312	757.8624877929688	521.0802001953125	-1061.5556640625	757.2430419921875	562.9778442382812	-1109.4619140625	1396.776489257812	957.3779907226562	-1120.338134765625	1338.9580078125	1024.690185546875	-1125.3017578125	1070.9970703125	1079.280883789062	-1169.487548828125	1062.623168945312	994.707763671875	-1037.375244140625	843.1587524414062	1014.943908691406	-1072.266723632812	838.4025268554688	1092.2900390625	-1100.356201171875	1002.841918945312	1087.855224609375	-1039.8486328125	655.5429077148438	1011.114379882812	-1053.6845703125	725.759033203125	1083.970336914062	-1125.941040039062	1584.357299804688	874.5530395507812	-968.19384765625	1607.985595703125	734.5278930664062	-958.3777465820312	1608.103271484375	826.453369140625	-1142.659912109375	1574.564697265625	729.3405151367188	-1183.637329101562	936.66552734375	628.5015869140625	-1053.120971679688	947.6303100585938	939.4015502929688	-1049.636840820312	945.1092529296875	687.695068359375	-1000.986694335938	491.4206848144531	644.11572265625	-1047.626342773438	627.1475830078125	628.6460571289062	-1268.620727539062	133.6422882080078	604.8011474609375	-1130.675170898438	302.7760314941406	613.351806640625	-1091.7626953125	40.42390060424805	659.6689453125	-1160.261596679688	44.5948371887207	698.2201538085938	-1160.62548828125	77.55687713623047	591.358154296875	-1315.980224609375	139.3064117431641	662.1332397460938	-1184.175659179688	475.7351684570312	942.2827758789062	-1133.559814453125	733.2691650390625	989.8807983398438	-1304.672607421875	45.49958038330078	878.2845458984375	-1193.533081054688	353.1923217773438	920.2575073242188	-1105.214111328125	47.36355972290039	840.4567260742188	-1157.979248046875	46.3630485534668	796.5829467773438	-1203.056030273438	37.20898818969727	906.6011962890625	-1082.295654296875	854.9009399414062	585.8842163085938	-1011.7578125	724.7200317382812	1027.228393554688	-1353.218994140625	45.22708129882812	823.5672607421875	-1180.67236328125	951.7692260742188	1001.768676757812	nan	nan	nan	nan	nan	nan	
